<svg id="Ebene_1" data-name="Ebene 1" xmlns="http://www.w3.org/2000/svg" viewBox="0 0 248 124"><title>Logo_SchwarzkopfProfessional_2018_positive</title><path d="M139.25,26.38a18.26,18.26,0,0,1,.51-4.92,8.77,8.77,0,0,0-.34-4.92,8.77,8.77,0,0,0-2.12-5.34c-1.27-1.7-3.31-2-4.83-3.14s-3.39-1.36-5.26-1.36a15.64,15.64,0,0,1-3.48-.51,9.32,9.32,0,0,0-5.09.51,12.73,12.73,0,0,0-3.65.85c-1.36.76-3.05,1.27-4.07,2.63-.76.93-1.78,1.7-2,2.88a4.37,4.37,0,0,0,1.27,4c.34.42,1,.42,1.19.93a16.6,16.6,0,0,1-1,2.88c-.59,1.1,1,1.7.42,2.8l-2.29,4.07a4.82,4.82,0,0,0-.59,1.87c.25,1.1,1.61.68,2.29,1.36.51.59-.25,1.1-.34,1.7s.68.68.34,1.19c-.42.76.34,1.27.59,1.87.08.93-.51,2,.17,2.63,1.78,1.27,4.49.25,6.36,1.19.93.68.76,2,.76,3.05-.51,4.41-2.63,8.23-5.43,11.7a2,2,0,0,0-.34,1.53,2.45,2.45,0,0,0,1.36,0c5-1.7,9-6.11,13.91-8.14a25.09,25.09,0,0,1,6.11-1.7c.51-.42.25-1.1.08-1.61-1-2.71-2.2-5.43-2-8.48,0-1.1,1.27-1.36,2-1.78,1.27-.34,2.12-1.7,2.71-2.8C137.73,29.61,139.08,28.25,139.25,26.38Z"/><path d="M201.67,62.26a13.86,13.86,0,0,0-5.51,2.12V61.92l-6.28,1.61v.93l3.05,1V88.29l-3.05,1.27v1H200v-1l-3.82-1.27V80.41a7.14,7.14,0,0,0,2.29.34c4.49,0,10-3.39,10-9.67C208.46,66.07,205.49,62.26,201.67,62.26ZM198.2,78.88a17.94,17.94,0,0,1-2-.17V65.22a6.77,6.77,0,0,1,3.05-.59c3.48,0,5.77,3.05,5.77,7.55C205,77.1,202.44,78.88,198.2,78.88Z"/><path d="M220.67,52.59c-4.83,0-8,3-8,7.55v2.29h-3v1.87h3v14l-3,1.36v1h9.84v-1l-3.73-1.36v-14h5.26V62.51h-5.26V59.63c0-2.12.42-3.48,1.44-4.33a5.16,5.16,0,0,1,3.22-1.19H221l1,2.46h2.29V53.18A9.4,9.4,0,0,0,220.67,52.59Z"/><path d="M37,66.5l-4.07-2.71C30.19,62,29.6,61.15,29.6,59.37c0-2.71,1.87-3.9,5.77-3.9a17.85,17.85,0,0,1,2,.08h.34l1.87,4.83H41V54.62l-.59-.08-1.61-.34c-.51-.08-1.19-.25-2-.34-1.1-.08-2.2-.25-2.88-.25-4.41,0-7.38,2.88-7.38,7.12a6.12,6.12,0,0,0,.93,3.48c.68,1.19,1.36,1.87,3.39,3.22L34.6,70c2.71,1.78,3.31,2.71,3.31,4.75C37.91,77.52,36,79,32.4,79c-1,0-1.87-.08-2.8-.17l-1.87-5H26.21v5.94l.42.08,2.2.51a21.27,21.27,0,0,0,4.66.68c5,0,8.23-2.88,8.23-7.38a6.59,6.59,0,0,0-1.19-4.07C39.78,68.36,39.44,68.11,37,66.5Z"/><path d="M57,78.37a15.66,15.66,0,0,1-3.39.42c-2.29,0-3.65-.59-4.83-2.12a8.72,8.72,0,0,1-1.7-5.51c0-4.49,2.63-7.8,6-7.8h.76l1.53,3.39H57.5v-4a12.54,12.54,0,0,0-4.33-.85c-5.6,0-9.33,4-9.33,10,0,5.26,3.05,9,7.38,9a12.54,12.54,0,0,0,4.33-.85l1.78-.59.34-.08-.17-1.27Z"/><path d="M75.73,68.36c0-3.9-1.87-6.45-4.75-6.45-1.19,0-2.71.59-5.17,2l-.42.17V51.57l-6.11,1.61v.93l3.05,1.1v23l-2.88,1.44v1H68v-1L65.47,78.2V65.06a11.7,11.7,0,0,1,3.14-.42c3,0,4.16,1.44,4.16,4.75V78.2l-2.71,1.44v1H78.7v-1L75.82,78.2V68.36Z"/><path d="M105.33,62.51h-7v.93l2.63,1.27L97.19,76.16,97,75.74a12.38,12.38,0,0,0-.59-2L92.78,62.51h-1L86.84,76.08l-.08-.59-.34-1-.34-1-3-9,2.71-1v-.93H77.51v.93l2.2,1,5.77,16.2H87l4.41-12.47,4.07,12.47h1.61l6.11-16,2.12-1.27Z"/><path d="M118,76.76V66.67c0-3.05-1.61-4.49-5.09-4.49a19.6,19.6,0,0,0-6,1.27v3.48h2l1.44-3.14a3.8,3.8,0,0,1,.93-.08c2.63,0,3.48.76,3.48,3.14V71a52.85,52.85,0,0,0-5.85.85c-2.37.59-3.73,2-3.73,4.33a4.45,4.45,0,0,0,4.75,4.58,4.76,4.76,0,0,0,1.7-.25,11.91,11.91,0,0,0,1.53-.76l1.19-.59.42-.25c.25,1.27.76,1.87,1.87,1.87h.17a5.54,5.54,0,0,0,1.44-.25l2.54-.93v-.76l-2-.59C118.05,77.86,118,77.78,118,76.76Zm-3.14,1.44c-.17.08-.17.08-.25.08a11.19,11.19,0,0,1-1.1.25,6.59,6.59,0,0,1-1.36.17c-2,0-3.31-1.19-3.31-3.05a2.75,2.75,0,0,1,2.37-2.88,27.9,27.9,0,0,1,3.65-.76Z"/><path d="M128.65,64l-.34.17V61.75l-6,1.53v.85l2.88.93V78.28l-2.88,1.36v.93H132v-.93l-3.56-1.36V65.14a7.38,7.38,0,0,1,2.63-.59h.85l1,2.29h2.37V62.6a3.43,3.43,0,0,0-1.78-.59C132.47,62,130.94,62.68,128.65,64Z"/><polygon points="137.3 67.6 138.49 67.6 140.19 64.21 146.38 64.21 136.54 79.39 136.54 80.66 150.53 80.66 150.53 74.98 149.43 74.98 147.48 78.96 140.61 78.96 150.53 63.7 150.53 62.51 137.3 62.51 137.3 67.6"/><polygon points="162.24 69.55 167.33 64.46 170.72 63.27 170.72 62.34 162.66 62.34 162.66 63.27 164.95 64.21 158.93 70.74 165.97 80.66 171.23 80.66 171.23 79.64 168.68 78.54 162.24 69.55"/><polygon points="158.42 51.4 152.23 52.93 152.23 53.78 155.37 54.79 155.37 78.37 152.4 79.64 152.4 80.66 161.39 80.66 161.39 79.64 158.42 78.37 158.42 51.4"/><path d="M179.79,61.83c-5.34,0-8.9,4-8.9,10,0,5.51,3.48,9.33,8.4,9.33,5.26,0,9.07-4.24,9.07-10C188.27,65.56,184.88,61.83,179.79,61.83Zm-.08,17.56c-3.22,0-5.17-3.05-5.17-8.14,0-4.83,1.78-7.63,4.83-7.63,3.31,0,5.17,3.14,5.17,8.48C184.63,76.67,182.85,79.39,179.71,79.39Z"/><path d="M26.55,108.9V98.13H31c2.46,0,4.07,1.44,4.07,3.65,0,2.8-2.2,3.73-4.33,3.73h-2v3.31H26.55Zm4.24-5.17a1.9,1.9,0,0,0,2.12-1.87c0-1.19-.76-1.87-2.12-1.87H28.67v3.73Z"/><path d="M49.87,108.9l-2.37-3.56h-2.2v3.56H43.17V98.13h4.92a4.18,4.18,0,0,1,3.14,1.1,3.39,3.39,0,0,1,.93,2.46A3.28,3.28,0,0,1,49.87,105l-.17.08,2.63,3.9H49.87Zm-2-5.43c1.27,0,2-.68,2-1.7S49.19,100,47.83,100H45.29v3.56h2.63Z"/><path d="M65.3,109.07a5.49,5.49,0,0,1-5.68-5.51A5.63,5.63,0,0,1,65.39,98a5.49,5.49,0,0,1,5.68,5.51A5.63,5.63,0,0,1,65.3,109.07Zm0-9.24a3.43,3.43,0,0,0-3.48,3.65,3.55,3.55,0,0,0,3.56,3.65,3.43,3.43,0,0,0,3.48-3.65A3.66,3.66,0,0,0,65.3,99.83Z"/><polygon points="79.21 108.9 79.21 98.13 87.35 98.13 87.35 100 81.33 100 81.33 102.71 86.67 102.71 86.67 104.58 81.33 104.58 81.33 108.9 79.21 108.9"/><polygon points="96.6 108.9 96.6 98.13 104.65 98.13 104.65 99.91 98.72 99.91 98.72 102.54 103.97 102.54 103.97 104.41 98.72 104.41 98.72 107.03 104.74 107.03 104.74 108.9 96.6 108.9"/><path d="M117.71,109.07a6.58,6.58,0,0,1-4.33-1.53l-.17-.08,1.27-1.44.08.08a4.7,4.7,0,0,0,3.14,1.19c1.27,0,1.78-.59,1.78-1.19,0-.76-.51-1.1-2.37-1.61-2.37-.59-3.56-1.27-3.56-3.22S115.08,98,117.29,98A6.13,6.13,0,0,1,121,99.23l.17.08-1.1,1.61-.17-.08a5.47,5.47,0,0,0-2.71-.93c-1.1,0-1.61.59-1.61,1.1,0,.93.68,1.19,2.54,1.61,2.46.68,3.39,1.53,3.39,3.14C121.61,107.8,120.09,109.07,117.71,109.07Z"/><path d="M134.17,109.07a6.58,6.58,0,0,1-4.33-1.53l-.17-.08,1.27-1.44.08.08a4.7,4.7,0,0,0,3.14,1.19c1.27,0,1.78-.59,1.78-1.19,0-.76-.51-1.1-2.37-1.61-2.37-.59-3.56-1.27-3.56-3.22S131.54,98,133.74,98a6.13,6.13,0,0,1,3.73,1.19l.17.08-1.1,1.61-.17-.08a5.47,5.47,0,0,0-2.71-.93c-1.1,0-1.61.59-1.61,1.1,0,.93.68,1.19,2.54,1.61,2.46.68,3.39,1.53,3.39,3.14C138.15,107.8,136.63,109.07,134.17,109.07Z"/><rect x="147.06" y="98.13" width="2.12" height="10.77"/><path d="M163.51,109.07a5.49,5.49,0,0,1-5.68-5.51,5.63,5.63,0,0,1,5.77-5.6,5.49,5.49,0,0,1,5.68,5.51A5.63,5.63,0,0,1,163.51,109.07Zm0-9.24a3.43,3.43,0,0,0-3.48,3.65,3.55,3.55,0,0,0,3.56,3.65,3.43,3.43,0,0,0,3.48-3.65A3.6,3.6,0,0,0,163.51,99.83Z"/><polygon points="184.88 108.9 179.2 101.52 179.2 108.9 177.16 108.9 177.16 98.13 179.2 98.13 184.63 105.25 184.63 98.13 186.66 98.13 186.66 108.9 184.88 108.9"/><path d="M203.62,108.9l-1-2.46h-4.92l-1,2.46h-2.12L199.13,98h2l4.58,10.86Zm-1.78-4.33-1.7-4.24-1.7,4.24Z"/><polygon points="213.63 108.9 213.63 98.13 215.75 98.13 215.75 106.95 221.26 106.95 221.26 108.9 213.63 108.9"/></svg>